<svg width="373" height="400" viewBox="0 0 373 400" xmlns="http://www.w3.org/2000/svg"><g fill="none" fill-rule="evenodd"><path fill="#4A4A4A" fill-rule="nonzero" d="M186.2 0L0 66.4l28.4 246.2L186.2 400 344 312.6l28.4-246.2"/><path fill="#545454" fill-rule="nonzero" d="M186 0v44.4-.2V400l157.8-87.4 28.4-246.2"/><path d="M149.112 84.117a7.49 7.49 0 0 0-1.5.459c-.385.176-1.105.387-1.6.468-.495.082-1.115.317-1.377.523-.262.206-.722.374-1.02.374-.3 0-.78.218-1.067.484-.288.267-.709.544-.936.616-.227.072-.63.349-.897.616-.267.266-.579.484-.694.484-.115 0-.209.137-.209.305 0 .168-.213.386-.473.485-.26.098-.52.366-.58.595-.06.228-.253.415-.428.415-.176 0-.319.09-.319.202 0 .11-.27.484-.6.829-.33.346-.6.699-.6.785 0 .086-.18.214-.4.284-.22.07-.4.217-.4.328 0 .245-1.304 1.65-3.7 3.992-.99.968-2.028 1.989-2.308 2.269-.279.28-.572.51-.65.51-.08 0-.544.406-1.032.9-.488.496-.968.9-1.067.9-.1 0-.336.173-.526.383-.19.21-.62.495-.957.635-.337.139-.818.44-1.07.668-.88.796-1.594 1.254-2.18 1.398-.326.08-.709.312-.85.515-.144.204-.552.434-.907.512-.356.079-.743.274-.86.435-.119.16-.644.372-1.168.47-.524.098-1.178.355-1.453.57-.275.218-.92.455-1.436.529-.515.074-1.086.266-1.27.427-.214.187-1.144.362-2.6.488-1.246.107-2.559.329-2.917.493-.357.164-1.745.39-3.083.505-1.46.125-2.61.324-2.875.498-.244.159-1.01.38-1.706.493-.838.135-1.35.329-1.524.577-.144.205-.522.43-.84.5-.319.07-.738.303-.93.516-.195.214-.474.389-.622.389-.305 0-2.669 2.296-2.669 2.592 0 .106-.168.353-.373.55-.206.197-.483.695-.615 1.106-.133.412-.365.818-.515.902-.168.094-.356.816-.487 1.872-.118.945-.34 2.159-.497 2.698-.219.757-.298 2.87-.348 9.28-.063 8.033-.079 8.323-.488 9.016a8.984 8.984 0 0 0-.666 1.45c-.133.404-.327.734-.43.734-.106 0-.269.204-.363.454-.309.812-4.659 5.383-6.516 6.846-.419.33-1.04.843-1.382 1.14-.34.296-.869.746-1.173 1-.467.388-3.138 3.025-4.54 4.48-.224.233-.407.509-.407.615 0 .106-.27.495-.6.865-.33.37-.6.822-.6 1.005 0 .183-.176.492-.39.686-.215.195-.49.832-.61 1.416-.123.584-.352 1.17-.51 1.302-.419.347-.405 4.268.02 5.28.17.408.403 1.787.52 3.065.121 1.326.335 2.512.497 2.759.157.239.368 1.166.47 2.059.131 1.147.3 1.749.575 2.044.215.23.451.748.525 1.15.075.404.298.914.498 1.134.2.22.424.693.5 1.052.075.358.306.742.513.852.22.118.422.509.49.948.063.412.263 1.197.445 1.745.47 1.416.475 6.306.007 7.303-.18.385-.387 1.123-.46 1.64-.073.517-.348 1.232-.61 1.589-.265.357-.48.779-.48.939 0 .405-1.325 2.36-1.695 2.503-.168.064-.305.296-.305.516 0 .219-.18.495-.4.613-.22.118-.4.343-.4.5 0 .157-.257.582-.57.943-.316.36-.633.985-.707 1.387-.073.4-.266.84-.428.974-.418.347-.406 3.2.016 4.017.171.33.387 1.278.48 2.106.116 1.04.29 1.638.562 1.938.217.239.454.685.526.99.072.305.31.733.526.95.217.217.395.556.395.753 0 .198.405.805.9 1.35.494.546 1.03 1.262 1.188 1.592.16.33.474.713.701.852.226.138.411.376.411.528 0 .153.136.329.302.393.166.064.405.343.532.62.127.279.354.507.504.507.151 0 .333.157.403.35.071.193.316.542.544.776.228.235.91.988 1.515 1.674.605.686 1.52 1.7 2.031 2.255.512.554.984 1.27 1.048 1.592.065.322.29.805.501 1.073.211.268.445.936.521 1.484.075.548.207.996.294.996.21 0 .547.925.676 1.853.058.414.283.979.5 1.256.218.277.456.86.53 1.297.074.437.205.794.292.794.204 0 .556.898.72 1.836.07.405.247.783.395.84.148.056.385.488.526.959.141.47.416 1.015.611 1.21.195.195.355.618.355.94 0 .32.213.838.473 1.15.26.31.542.79.627 1.065.085.275.323.715.528.977.204.262.372.638.372.835 0 .196.22.618.487.936.268.318.546.814.618 1.1.072.288.253.57.402.627.15.057.384.49.523.964.14.474.414.979.611 1.122.198.144.36.392.36.552 0 .16.181.447.405.638.223.19.496.685.607 1.098.111.413.286.75.39.75.102 0 .543.563.98 1.25.437.689.934 1.43 1.104 1.65.712.92 1.316 1.83 1.516 2.286.117.266.412.68.655.922.243.24.601.652.795.915 1.006 1.36 1.766 2.32 2.135 2.699.227.232.412.522.412.645 0 .124.225.372.5.552.275.18.5.417.5.525 0 .108.247.437.55.73.302.295 1 1.06 1.55 1.7.55.642 1.472 1.675 2.05 2.296.578.62 1.05 1.242 1.05 1.38 0 .138.117.25.26.25.324 0 1.74 1.432 1.74 1.759 0 .133.113.245.25.248.32.007 1.448 1.03 1.741 1.577.123.229.324.417.448.417.207 0 .851.558 3.714 3.22.58.539 1.14.98 1.248.98.108 0 .308.18.445.4.138.22.361.4.497.4.137 0 .395.225.575.5.181.275.436.5.57.5.132 0 .55.272.926.605.377.333.977.85 1.333 1.15.356.3 1.066.928 1.578 1.397.511.469 1.13.964 1.374 1.1 1.038.578 2.101 1.368 2.101 1.56 0 .115.263.3.584.412.321.112.633.333.694.49.06.157.231.286.38.286.148 0 .572.27.942.6.37.33.777.6.905.6s.396.18.595.4c.2.22.464.4.59.4.123 0 .537.266.918.592.38.325.836.595 1.011.6.175.004.482.188.681.408.2.22.487.4.64.4.153 0 .495.217.76.48.264.266.793.586 1.174.712.382.125.802.359.934.518.133.16.358.29.501.29.143 0 .528.225.856.5.327.277.868.557 1.201.623.334.067.775.279.981.47.207.193.7.457 1.097.588.396.13.766.356.821.5.056.145.507.365 1.003.49.496.125 1.032.358 1.193.518.16.16.55.353.865.427.316.075.754.299.974.498.22.199.79.449 1.264.556.476.107 1.016.329 1.2.495.185.166.676.364 1.091.44.415.078.865.295 1 .483.138.193.763.445 1.43.577.651.13 1.326.363 1.5.518.173.156.665.348 1.092.427.428.08.937.304 1.132.499.206.206.914.44 1.696.563.738.115 1.49.34 1.67.5.178.16.754.356 1.277.433.524.078 1.173.315 1.443.527.318.25 1.014.445 1.975.552.817.092 1.743.31 2.058.484.314.174 1.19.406 1.946.515.755.109 1.526.336 1.712.504.224.203 1.051.368 2.454.49 1.164.1 2.42.32 2.788.489.37.167 1.684.399 2.922.514 1.302.12 2.516.347 2.883.537 1.594.824 24.67.814 26.304-.012.377-.19 1.641-.41 3.1-.538 1.355-.12 2.704-.34 3-.49.294-.15 1.594-.366 2.888-.48 1.606-.14 2.461-.304 2.695-.515.188-.17 1.003-.395 1.811-.5.808-.104 1.711-.325 2.007-.49.296-.165 1.284-.394 2.195-.508.912-.114 1.705-.28 1.763-.366.19-.29.893-.57 1.8-.72.492-.082 1.088-.275 1.322-.43.235-.152.992-.378 1.681-.5.69-.121 1.408-.375 1.597-.564.19-.19.737-.406 1.218-.483.482-.077 1.02-.271 1.196-.43.176-.16.744-.37 1.262-.466.52-.097 1.11-.326 1.312-.51.203-.184.715-.43 1.14-.547.423-.117.976-.375 1.23-.574.251-.198.821-.422 1.266-.497.444-.075.856-.262.915-.415.058-.153.48-.387.936-.52.456-.133.9-.356.986-.496.086-.14.536-.353 1-.474.463-.122.936-.34 1.05-.484.2-.257 1.09-.764 2.493-1.42.385-.18.88-.487 1.1-.684.22-.197.611-.422.87-.501.258-.078.638-.311.845-.518.206-.206.61-.434.897-.506.287-.072.762-.35 1.055-.62.293-.267.673-.613.844-.767.171-.154.644-.42 1.05-.59.406-.168.74-.398.74-.51 0-.11.242-.311.54-.446.297-.135.742-.426.99-.646.982-.873 1.835-1.5 2.04-1.5.118 0 .306-.17.417-.377.111-.207.43-.434.707-.504.278-.07.505-.263.505-.43 0-.165.157-.36.35-.43.193-.071.537-.316.766-.544.23-.228.59-.556.8-.73 1.408-1.15 3.827-3.315 4.045-3.62.144-.201.381-.365.527-.365.146 0 .314-.187.374-.415a.808.808 0 0 1 .523-.523c.228-.06.415-.202.415-.315 0-.114.5-.711 1.112-1.327 1.324-1.334 1.268-1.272 3.077-3.418.787-.933 1.562-1.77 1.721-1.86.16-.09.29-.287.29-.441 0-.153.163-.396.363-.54.2-.143.425-.427.501-.63a.856.856 0 0 1 .52-.47c.21-.054.436-.311.501-.571.065-.26.343-.715.617-1.011.274-.295.498-.611.498-.7 0-.09.192-.342.426-.561.235-.218.527-.566.65-.773.597-1.005 1.126-1.776 1.426-2.078.183-.183.482-.602.665-.933l.774-1.392c.243-.436.581-.846.75-.911.17-.065.31-.255.31-.421 0-.386 1.351-2.51 1.596-2.51.102 0 .243-.312.315-.693.071-.381.256-.798.411-.926.155-.13.462-.604.682-1.057.372-.766.626-1.244 1.338-2.524.154-.275.418-.812.59-1.193.17-.381.428-.786.573-.9.146-.114.362-.58.481-1.034.12-.454.344-.933.502-1.064.157-.13.346-.523.42-.873.074-.35.298-.816.498-1.036.201-.22.474-.835.607-1.367s.364-1.014.514-1.071c.175-.067.264-.402.25-.933-.014-.456-.065-.676-.114-.488-.049.187-.286.402-.527.477-.24.075-.726.37-1.08.659-1.255 1.022-1.763 1.369-2.207 1.508-.247.078-.45.22-.45.318 0 .219-1.94 1.504-2.55 1.688-.247.075-.45.217-.45.316 0 .213-1.938 1.483-2.566 1.682-.239.076-.434.227-.434.336 0 .108-.405.377-.9.596-.495.219-.9.477-.9.573 0 .096-.304.275-.676.398-.372.123-.83.395-1.02.604-.19.21-.599.437-.908.505-.309.068-.61.248-.669.4-.059.153-.49.382-.962.508-.47.127-.97.395-1.11.595-.14.2-.516.422-.835.49-.318.07-.729.295-.912.498-.184.202-.663.43-1.064.505-.402.076-.846.302-.987.504-.142.202-.55.429-.907.505-.358.076-.8.272-.986.434-.184.163-.714.38-1.177.485-.463.104-1.057.359-1.32.566-.264.207-.836.436-1.273.51-.437.074-.794.209-.794.3 0 .205-.999.52-2.177.688-.482.068-1.087.289-1.343.49-.268.212-.992.427-1.7.507-.678.077-1.424.264-1.657.415-1.3.846-4.043.405-3.209-.517.191-.211.472-.384.623-.384.152 0 .33-.14.395-.31.14-.365 2.147-1.69 2.561-1.69.156 0 .41-.178.562-.396.152-.218.607-.534 1.011-.703.404-.168.734-.39.734-.49 0-.101.203-.247.45-.325.248-.077.74-.375 1.093-.663 1.25-1.018 1.822-1.423 2.01-1.423.103 0 .461-.247.795-.55 1.23-1.113 1.698-1.454 2.163-1.571.261-.065.53-.29.595-.5.067-.208.205-.38.31-.38.102 0 .382-.224.621-.5.24-.274.518-.5.62-.5.1 0 .425-.246.721-.55.296-.302 1.296-1.224 2.223-2.05 2.542-2.262 4.238-4.005 7.1-7.3.286-.33.898-1.02 1.36-1.532.461-.512.974-1.154 1.14-1.425.763-1.257 1.42-2.142 1.588-2.142.101 0 .247-.203.325-.45.077-.247.353-.704.613-1.015.26-.311.473-.678.473-.814 0-.137.225-.445.5-.684.275-.24.5-.58.5-.757 0-.177.225-.59.5-.916.275-.327.5-.718.5-.868 0-.15.168-.391.373-.535.205-.143.437-.55.514-.902.077-.352.301-.847.498-1.1.196-.252.467-.796.601-1.207.134-.412.358-.817.497-.9.14-.084.364-.602.5-1.152.136-.55.366-1.135.512-1.3.146-.165.36-.648.476-1.074.115-.425.352-.93.525-1.122.174-.192.401-.87.504-1.504.103-.635.318-1.3.476-1.478.16-.177.35-.772.424-1.322.075-.55.306-1.242.515-1.537.25-.354.45-1.168.587-2.378.114-1.012.337-2.076.495-2.363.158-.287.382-1.463.5-2.613.136-1.36.331-2.268.557-2.6.377-.555.66-17.355.333-19.802l-.148-1.107-.219.833c-.12.457-.37.997-.554 1.2-.184.202-.397.617-.473.922-.076.305-.296.665-.489.8s-.414.533-.49.886c-.078.352-.303.847-.5 1.1a3.51 3.51 0 0 0-.502.915c-.079.25-.36.692-.628.98-.266.287-.484.672-.484.854 0 .183-.225.637-.5 1.01s-.5.79-.5.928c0 .137-.168.367-.373.51-.205.144-.435.545-.51.89-.077.347-.315.789-.528.982-.214.194-.389.46-.389.593 0 .133-.27.582-.6.997-.33.415-.6.864-.6.997 0 .132-.18.404-.4.603-.22.199-.4.48-.4.624 0 .144-.258.558-.573.919-.315.36-.636.859-.713 1.107-.078.247-.224.45-.325.45-.1 0-.307.293-.459.65-.15.358-.467.82-.702 1.03-.236.21-.428.502-.428.649 0 .147-.18.38-.4.517-.22.138-.4.359-.4.493s-.216.459-.48.722a5.39 5.39 0 0 0-.805 1.11c-.179.346-.399.629-.488.629-.09 0-.265.225-.39.5-.126.275-.359.5-.519.5-.16 0-.353.196-.429.435-.166.522-1.335 1.765-1.659 1.765-.127 0-.23.132-.23.293 0 .162-.337.61-.75.996a81.576 81.576 0 0 0-1.45 1.399c-1.307 1.3-2.844 1.294-1.819-.01.23-.292.42-.682.42-.866 0-.184.224-.64.5-1.012.274-.373.5-.79.5-.928 0-.137.17-.37.38-.516.208-.146.483-.651.61-1.121.126-.471.35-.902.497-.958.147-.056.32-.364.383-.684.064-.32.293-.757.51-.974.216-.216.485-.725.596-1.13.112-.405.328-.883.48-1.063.15-.18.38-.7.51-1.155.13-.456.365-.88.521-.94.156-.06.346-.52.421-1.022.075-.502.3-1.12.498-1.372s.425-.803.504-1.225c.08-.422.3-.923.49-1.113.191-.191.446-.911.568-1.6.121-.69.351-1.452.51-1.695.16-.243.386-.966.504-1.606.12-.641.35-1.314.514-1.495.183-.202.376-1.082.5-2.275.111-1.07.332-2.197.491-2.505.168-.324.376-1.687.495-3.241.113-1.475.343-3.204.511-3.842.394-1.494.402-5.123.015-6.674-.16-.641-.395-2.471-.522-4.066-.136-1.711-.35-3.132-.523-3.467-.16-.312-.375-1.368-.476-2.348-.133-1.288-.287-1.884-.555-2.152-.203-.203-.43-.805-.503-1.337-.072-.532-.266-1.115-.43-1.297-.165-.181-.378-.753-.475-1.271-.097-.52-.32-1.103-.498-1.298-.177-.196-.427-.665-.555-1.043a5.773 5.773 0 0 0-.578-1.187 3.857 3.857 0 0 1-.485-1.15c-.077-.357-.216-.65-.307-.65-.09 0-.362-.405-.602-.9s-.51-.9-.602-.9c-.092 0-.272-.32-.4-.71-.13-.39-.442-.94-.694-1.222-.997-1.116-1.149-1.327-1.414-1.961-.15-.362-.416-.712-.587-.778-.172-.066-.395-.325-.495-.575-.147-.365-.185-.255-.195.565-.007.56.131 1.308.306 1.66.181.362.402 1.598.51 2.852.12 1.389.307 2.39.504 2.692.212.323.401 1.472.58 3.528.146 1.677.37 3.499.498 4.049.324 1.395.328 11.894.004 13.1-.132.495-.36 2.184-.507 3.754-.17 1.832-.377 3.02-.574 3.322-.183.279-.386 1.325-.503 2.586-.108 1.165-.332 2.37-.498 2.678-.166.308-.399 1.093-.518 1.745-.118.65-.353 1.336-.52 1.522-.17.186-.36.823-.425 1.416-.064.592-.282 1.367-.483 1.72a5.238 5.238 0 0 0-.499 1.353c-.073.389-.305.925-.514 1.192-.209.266-.458.898-.553 1.405-.095.507-.303 1.076-.462 1.264-.16.189-.396.716-.526 1.172-.13.456-.362.878-.515.936-.153.059-.34.47-.415.915-.075.445-.303 1.02-.507 1.28a3.227 3.227 0 0 0-.506 1.01c-.075.297-.293.65-.486.785s-.417.547-.497.915c-.08.369-.306.829-.498 1.02-.193.194-.412.593-.485.887-.074.294-.357.728-.629.965s-.497.57-.499.744c-.003.323-.889 1.755-1.596 2.58-.22.258-.4.573-.403.7-.003.248-.543.99-1.447 1.987-.303.333-.55.705-.55.827 0 .12-.225.48-.5.8-.275.32-.5.645-.5.72 0 .078-.247.413-.55.745-.302.332-.73.845-.95 1.139-.22.294-.625.793-.9 1.11a30.125 30.125 0 0 0-1.2 1.527 22.454 22.454 0 0 1-1.55 1.84c-.468.489-.85.97-.85 1.069 0 .099-.225.265-.5.37-.275.105-.5.31-.5.459 0 .148-.202.459-.45.69-.248.233-.56.542-.694.687-.31.334-.509.537-1.496 1.524l-1 1-1 1-1 1c-.11.11-.573.569-1.03 1.02-.456.45-1.239 1.224-1.738 1.72-.499.495-1.019.9-1.154.9-.136 0-.349.225-.474.5-.126.275-.313.5-.416.5-.103 0-.438.247-.743.55-.306.303-.72.682-.919.844-.2.16-.773.633-1.274 1.048-.502.414-1.16.957-1.464 1.206-.304.249-.858.739-1.232 1.09l-.679.638 1.07.133c2.404.3 11.75.01 12.336-.382.305-.204 1.213-.447 2.07-.554.84-.104 1.722-.318 1.963-.476.241-.157 1.053-.374 1.806-.48.89-.126 1.517-.334 1.795-.595.235-.221.803-.462 1.263-.536.46-.073.882-.256.94-.406.058-.15.482-.333.943-.407.461-.074 1.011-.307 1.223-.52.212-.211.671-.482 1.02-.601a4.53 4.53 0 0 0 1.093-.57 3.149 3.149 0 0 1 1.052-.484c.326-.072.68-.293.785-.491.107-.2.421-.418.7-.488.277-.07.504-.218.504-.33 0-.112.392-.371.871-.577.48-.205.926-.517.994-.693.067-.175.3-.32.514-.32.216 0 .527-.134.692-.3.332-.33.846-.395 1.012-.126.06.096-.062.327-.27.515-.207.188-.432.56-.499.827-.067.267-.199.485-.294.485-.095 0-.532.372-.97.826-.439.454-.906.927-1.038 1.05s-.68.652-1.218 1.174c-.538.523-1.067.95-1.176.95-.109 0-.274.136-.367.302-.25.447-3.25 2.898-3.548 2.898-.14 0-.303.18-.36.399-.058.219-.27.46-.474.537-.203.076-.487.3-.63.5-.144.2-.355.364-.47.364-.115 0-.454.247-.755.55-.704.71-1.39 1.229-2.004 1.519-.27.127-.72.44-1 .695l-.82.743c-.17.153-.578.394-.905.536-.327.14-.773.418-.99.614-.916.829-1.655 1.325-2.164 1.453-.298.075-.629.3-.736.499-.107.2-.384.424-.615.497-.23.074-.59.305-.8.514-.209.209-.56.38-.78.38-.22 0-.56.157-.756.35-.586.575-2.362 1.6-3.025 1.746-.34.075-.619.204-.619.288 0 .084-.337.325-.75.535-.413.209-.965.538-1.227.73-.262.194-.669.35-.904.35-.234 0-.757.226-1.162.5-.405.276-.809.5-.898.5-.089 0-.566.214-1.06.474-.495.26-1.242.535-1.66.61-.419.077-.924.302-1.123.5-.199.2-.71.427-1.139.507-.427.079-.925.277-1.106.439-.18.163-.872.372-1.535.466-.663.094-1.46.35-1.77.57-.312.219-1.009.46-1.549.534-.54.075-1.195.274-1.454.443-.258.17-1.249.387-2.2.484-1.109.112-1.862.292-2.09.499-.234.21-1.003.388-2.215.51-1.022.103-2.218.33-2.658.504-.582.23-1.873.353-4.743.449-2.169.073-3.995.183-4.056.245-.148.148.901 1.255 1.35 1.423.192.072.351.247.353.388.003.14.33.526.727.856 1.62 1.344 1.937 1.619 2.366 2.05.247.247.537.45.645.45.108 0 .367.19.577.42.21.233.72.595 1.131.805.413.21.75.462.75.557 0 .096.203.227.45.29.247.065.711.345 1.031.623.32.278.73.505.911.505.182 0 .635.225 1.008.5s.792.5.931.5c.14 0 .414.17.611.378s.87.483 1.493.61c.624.129 1.24.36 1.366.513.127.154.63.339 1.118.412.487.073 1.1.3 1.36.505.318.252 1.07.44 2.314.58 1.013.116 2.082.334 2.375.485.55.284 1.307.365 6.732.72 1.76.116 3.515.26 3.9.323l.7.112-.75.386c-.412.212-.75.459-.75.549 0 .386-1.277.677-3.782.862-1.737.128-2.84.302-3.135.494-1.355.889-20.618.884-21.975-.005-.345-.226-1.266-.38-3-.501-1.65-.114-2.662-.278-2.968-.478-.256-.168-1.068-.37-1.806-.45-.834-.088-1.523-.286-1.823-.522-.296-.233-1.039-.45-1.913-.56-.786-.1-1.58-.312-1.764-.474-.184-.163-.739-.36-1.234-.438-.495-.08-1.089-.317-1.32-.53-.232-.212-.885-.46-1.452-.55-.567-.088-1.188-.3-1.38-.47-.19-.168-.663-.371-1.048-.45-.385-.08-.88-.31-1.1-.51-.22-.202-.789-.454-1.264-.561-.476-.107-1.016-.326-1.2-.487-.185-.161-.654-.394-1.043-.52-.388-.123-.86-.405-1.048-.624-.187-.22-.567-.4-.843-.4s-.68-.177-.897-.394a2.328 2.328 0 0 0-.905-.523c-.28-.07-.593-.282-.693-.47-.1-.188-.553-.452-1.006-.588-.452-.136-.872-.376-.933-.535-.06-.16-.278-.29-.482-.29-.205 0-.68-.27-1.055-.6-.376-.33-.818-.6-.983-.6-.164 0-.416-.14-.559-.312-.143-.172-.536-.456-.874-.63-.338-.174-.733-.483-.876-.687-.144-.203-.392-.37-.552-.37-.16 0-.445-.18-.633-.4-.189-.22-.442-.4-.562-.4-.12 0-.522-.27-.892-.6-.37-.33-.733-.6-.807-.6-.074 0-.377-.225-.674-.5-.297-.275-.619-.5-.716-.5-.097 0-.233-.18-.303-.4-.07-.22-.247-.4-.395-.4-.316 0-2.462-1.716-4.434-3.545-.264-.245-.658-.541-.875-.657-.218-.117-.396-.344-.396-.505 0-.161-.109-.293-.242-.293-.289 0-.25.036-5.013-4.737-4.967-4.98-4.745-4.744-4.745-5.021 0-.133-.132-.242-.293-.242-.16 0-.39-.183-.51-.406-.12-.223-.708-.896-1.307-1.495l-1.09-1.09v2.465c0 1.779.083 2.63.297 3.06.164.328.396 1.309.517 2.18.145 1.045.342 1.7.578 1.92.197.184.42.67.497 1.079.077.409.266.87.42 1.025.154.154.38.646.5 1.094.12.448.396 1.005.613 1.237.216.233.443.62.504.863.06.24.228.484.372.54.144.055.37.427.501.826.132.4.42.923.64 1.164.835.919 1.561 2.007 1.561 2.342 0 .192.18.396.4.454.218.057.46.27.536.473.076.203.301.487.501.63.2.144.363.372.363.506s.247.472.55.75c.303.28.775.808 1.05 1.173s.748.909 1.05 1.209c.303.299.55.637.55.75 0 .113.225.352.5.533.275.18.5.45.5.599 0 .15.187.32.415.38a.8.8 0 0 1 .521.518c.06.224.277.462.486.528.208.066.378.2.378.3 0 .098.276.46.613.806.585.598.597.645.27 1.007-.44.485-.789.482-1.134-.01-.15-.215-.67-.48-1.156-.59-.485-.108-.976-.326-1.09-.482-.115-.157-.5-.35-.856-.428-.355-.078-.759-.3-.897-.492-.137-.192-.547-.452-.909-.577a4.803 4.803 0 0 1-1.177-.634c-.285-.224-.638-.407-.784-.407-.146 0-.358-.173-.47-.384-.114-.211-.482-.444-.818-.518-.336-.074-.718-.306-.85-.516-.13-.21-.345-.382-.475-.382s-.49-.211-.802-.47a8.574 8.574 0 0 0-1.075-.75c-1.21-.665-1.798-1.102-1.898-1.41-.058-.182-.32-.384-.58-.45-.498-.124-1.194-.64-2.123-1.57-.302-.303-.616-.55-.696-.55-.08 0-.35-.202-.6-.45s-.576-.558-.724-.69a10.048 10.048 0 0 1-.51-.5c-.132-.143-.605-.574-1.05-.958-.445-.384-.809-.801-.809-.927s-.187-.277-.415-.337c-.228-.06-.46-.287-.518-.505a.775.775 0 0 0-.5-.5c-.218-.057-.446-.29-.505-.518-.06-.228-.23-.415-.378-.415-.149 0-.365-.178-.482-.396-.116-.217-.412-.608-.657-.868-1.419-1.507-2.997-3.53-3.326-4.263-.106-.235-.4-.656-.655-.935-.822-.9-1.299-1.625-1.437-2.188-.074-.303-.228-.55-.342-.55-.114 0-.38-.393-.594-.874-.212-.48-.513-.978-.668-1.107-.155-.128-.343-.564-.419-.97-.076-.404-.3-.85-.498-.988s-.423-.501-.499-.806c-.076-.305-.26-.691-.41-.858-.15-.167-.373-.742-.493-1.278-.12-.535-.385-1.186-.588-1.445-.204-.26-.434-.81-.51-1.222-.077-.414-.273-.901-.437-1.083-.163-.182-.387-.987-.499-1.79-.116-.837-.325-1.548-.492-1.67-.162-.12-.378-.827-.49-1.61-.112-.77-.346-1.658-.522-1.975-.212-.382-.379-1.46-.496-3.2-.109-1.607-.306-2.934-.508-3.424-.69-1.668-.693-18.07-.003-19.5.221-.457.4-1.588.516-3.258.123-1.78.268-2.662.477-2.9.165-.188.364-.873.442-1.523.147-1.217.455-2.12.724-2.12.084 0 .215-.516.291-1.15.075-.632.303-1.464.506-1.85a8.538 8.538 0 0 0 .588-1.56c.12-.472.346-.91.502-.97.156-.06.34-.436.408-.838.07-.402.282-.956.474-1.231.192-.275.463-.844.602-1.264.138-.42.376-.812.53-.871.152-.058.372-.462.49-.896.116-.434.342-.84.501-.901.16-.061.29-.24.29-.398 0-.16.203-.492.45-.742.248-.25.606-.785.797-1.191.19-.405.432-.737.536-.737.105 0 .254-.202.331-.45.078-.247.355-.675.616-.95l.872-.921c.22-.232.398-.487.398-.567 0-.36 4.693-5.09 6.42-6.472.704-.563 1.47-1.208 1.701-1.432.232-.224.508-.408.614-.408.106 0 .391-.228.633-.506.241-.278.708-.56 1.036-.625.335-.067.596-.247.596-.411 0-.161.27-.395.6-.52.33-.124.6-.301.6-.393 0-.092.395-.342.88-.556.482-.214.924-.512.982-.663.058-.151.346-.335.64-.408.292-.074.721-.311.953-.526.231-.216.615-.392.854-.392.238 0 .675-.224.97-.498.296-.274.772-.557 1.058-.63.287-.071.688-.297.892-.501.204-.204.634-.371.956-.371.322 0 .838-.212 1.15-.474.311-.261.851-.537 1.201-.613.35-.076.74-.263.866-.415.126-.152.74-.382 1.363-.511.624-.13 1.336-.395 1.583-.59.247-.193.787-.415 1.2-.491.414-.077.9-.272 1.078-.432.18-.161.94-.388 1.687-.505.775-.121 1.602-.39 1.921-.626.858-.634 3.683-.626 4.55.013.338.25 1.024.532 1.523.626.5.093 1.062.307 1.25.477.19.169.673.368 1.076.443.403.075.923.313 1.155.53.233.217.871.465 1.42.55.547.088 1.154.303 1.35.479.193.176.727.38 1.185.453.458.073 1.012.3 1.231.505.22.205.788.43 1.263.5.475.07 1.153.293 1.507.494.355.202.963.426 1.352.499.39.073.913.295 1.165.493.251.198.986.457 1.632.577.646.119 1.324.352 1.506.517.183.166.46.302.617.302.552.002 1.774.418 2.055.699.157.156.847.375 1.533.485.687.11 1.395.33 1.573.49.178.159.752.353 1.275.43.524.078 1.167.31 1.43.516.267.21 1.062.458 1.818.565.738.104 1.49.322 1.671.484.181.162.78.356 1.33.43.55.075 1.234.3 1.521.503.294.207 1.21.464 2.091.586.863.12 1.765.347 2.006.505.24.157.92.344 1.51.415.59.07 1.325.309 1.636.527.397.28 1.098.448 2.363.567.99.092 2.001.3 2.25.464.248.163 1.193.385 2.1.495.99.119 1.79.328 2.003.52.257.234 1.051.375 2.882.515 1.39.106 2.845.326 3.234.489.417.174 2.001.383 3.856.507 1.731.116 3.642.344 4.247.507 1.52.408 6.735.406 8.082-.002.541-.164 2.016-.395 3.28-.512 1.363-.127 2.48-.335 2.751-.513.251-.164 1.048-.383 1.771-.485.844-.12 1.454-.326 1.704-.576.214-.214.71-.45 1.101-.523.391-.073.711-.217.711-.318 0-.102.383-.363.85-.581 1.318-.614 3.795-2.717 4.442-3.771.115-.186.388-.638.608-1.005a9.32 9.32 0 0 1 .85-1.17c.248-.276.45-.726.45-1 0-.273.175-.78.388-1.125.214-.346.481-1.2.593-1.898.113-.698.343-1.48.512-1.738.393-.601.396-2.067.004-2.626-.166-.238-.403-1.18-.525-2.091-.123-.912-.34-1.841-.485-2.063-.144-.221-.37-1.033-.504-1.802-.132-.77-.368-1.492-.523-1.606-.156-.113-.369-.592-.475-1.064-.106-.472-.363-1.1-.57-1.395-.208-.295-.439-.893-.513-1.33-.075-.435-.298-.906-.496-1.045-.198-.138-.42-.494-.496-.791a3.245 3.245 0 0 0-.509-1.014 3.142 3.142 0 0 1-.503-1.067c-.072-.326-.297-.681-.5-.79a1.226 1.226 0 0 1-.504-.62c-.074-.23-.307-.592-.52-.805-.213-.213-.44-.654-.505-.98-.066-.327-.247-.594-.404-.594-.157 0-.38-.27-.495-.6-.115-.33-.288-.6-.384-.6-.097 0-.32-.282-.499-.626-.31-.6-.693-1.084-1.609-2.035-.232-.242-.486-.642-.564-.89-.077-.246-.26-.45-.404-.45-.145 0-.424-.246-.619-.55-.475-.734-7.882-8.123-8.447-8.425-.244-.131-.444-.364-.444-.518 0-.153-.202-.342-.45-.42-.247-.076-.824-.532-1.28-1.013-.457-.48-.913-.873-1.014-.873-.1 0-.485-.27-.852-.597-.368-.328-.834-.65-1.036-.713-.203-.064-.368-.244-.368-.4 0-.155-.227-.34-.505-.41-.278-.07-.596-.296-.707-.503-.11-.207-.32-.377-.464-.377-.144 0-.433-.19-.643-.42a3.952 3.952 0 0 0-.94-.711c-.535-.276-.75-.441-1.789-1.37-.246-.22-.786-.552-1.2-.74-.413-.186-.752-.434-.752-.55 0-.115-.128-.21-.285-.21-.156 0-.549-.221-.872-.493-.323-.272-.802-.588-1.065-.701-.263-.114-.883-.522-1.378-.907-.495-.385-1.282-.877-1.75-1.092-.468-.216-.85-.475-.85-.577 0-.102-.22-.241-.492-.31-.27-.067-.733-.347-1.029-.621-.295-.274-.687-.498-.869-.498-.183 0-.637-.225-1.01-.5s-.792-.5-.93-.5c-.14 0-.415-.171-.612-.381s-.73-.48-1.185-.601c-.454-.121-.933-.35-1.064-.507-.13-.157-.5-.343-.823-.414-.322-.071-.698-.287-.836-.481-.137-.193-.52-.414-.85-.491-.913-.211-1.7-.554-1.7-.74 0-.092-.307-.225-.683-.295-.375-.07-.869-.302-1.097-.515-.229-.212-.825-.463-1.325-.556-.5-.094-1.064-.308-1.252-.478-.189-.17-.688-.371-1.109-.45-.42-.077-.916-.302-1.1-.498-.184-.196-.867-.454-1.518-.574-.65-.12-1.332-.353-1.514-.517-.182-.165-.766-.36-1.298-.432-.532-.073-1.132-.298-1.334-.5-.228-.228-.8-.412-1.518-.49-.634-.067-1.512-.284-1.952-.482-.44-.198-1.375-.456-2.079-.574-.703-.118-1.433-.354-1.622-.525-.228-.206-1.02-.37-2.35-.485-1.103-.096-2.308-.313-2.677-.482-.37-.17-1.78-.404-3.137-.522-1.545-.135-2.703-.341-3.1-.55-.547-.288-1.57-.347-7.349-.422l-6.714-.086-1.586-1.466c-2.18-2.015-2.43-2.22-3.686-2.996-.605-.374-1.31-.863-1.567-1.085-.257-.223-.582-.405-.723-.405-.14 0-.47-.167-.733-.371-.262-.204-.814-.481-1.225-.615-.412-.134-.822-.375-.912-.535-.089-.16-.624-.364-1.187-.453-.564-.09-1.247-.307-1.517-.484-.27-.177-.974-.384-1.564-.46-1.113-.141-1.773-.39-2.01-.756-.16-.246-9.96-.376-11.262-.15" fill="#BA2BD2"/></g></svg>